<?xml version="1.0" standalone="no"?>
<!DOCTYPE svg PUBLIC "-//W3C//DTD SVG 20010904//EN"
 "http://www.w3.org/TR/2001/REC-SVG-20010904/DTD/svg10.dtd">
<svg version="1.0" xmlns="http://www.w3.org/2000/svg"
 width="768.000000pt" height="408.000000pt" viewBox="0 0 768.000000 408.000000"
 preserveAspectRatio="xMidYMid meet">

<g transform="translate(0.000000,408.000000) scale(0.100000,-0.100000)"
fill="#000000" stroke="none">
<path d="M3732 3870 c-252 -53 -421 -241 -472 -525 -21 -119 -23 -245 -6 -367
27 -194 79 -310 187 -421 121 -123 280 -174 504 -164 134 7 202 22 290 67 168
85 280 259 316 491 17 109 6 375 -19 466 -60 218 -183 357 -380 431 -59 22
-85 25 -222 28 -85 2 -175 -1 -198 -6z m329 -219 c67 -26 137 -84 172 -144
113 -192 109 -577 -7 -754 -40 -62 -114 -116 -186 -138 -89 -27 -246 -18 -321
18 -159 76 -239 274 -225 552 9 184 45 291 129 382 46 50 91 76 170 98 71 20
195 13 268 -14z"/>
<path d="M4820 3135 l0 -725 120 0 120 0 0 515 c0 283 3 515 8 515 8 0 10 -4
410 -602 l286 -428 113 0 113 0 0 725 0 725 -120 0 -120 0 0 -515 c0 -283 -3
-515 -7 -515 -5 1 -161 231 -349 513 l-341 512 -117 3 -116 3 0 -726z"/>
<path d="M6300 3135 l0 -725 470 0 470 0 0 105 0 105 -345 0 -345 0 0 210 0
210 305 0 305 0 0 105 0 105 -305 0 -305 0 0 200 0 200 335 0 335 0 0 105 0
105 -460 0 -460 0 0 -725z"/>
<path d="M5050 1755 c0 -8 9 -19 20 -25 19 -10 20 -23 22 -293 l3 -282 33 -3
32 -3 0 310 0 311 -55 0 c-42 0 -55 -4 -55 -15z"/>
<path d="M3513 1749 c-57 -13 -125 -75 -153 -141 -33 -76 -33 -239 0 -315 44
-104 151 -163 269 -149 162 18 241 138 228 343 -9 149 -72 237 -188 262 -58
13 -98 13 -156 0z m163 -68 c81 -37 121 -130 111 -258 -11 -143 -72 -214 -183
-214 -33 0 -71 4 -85 9 -37 15 -87 76 -100 124 -17 66 -7 214 19 264 43 84
147 116 238 75z"/>
<path d="M5940 1451 l0 -301 35 0 35 0 0 230 c0 127 4 230 8 230 5 0 78 -103
163 -230 148 -220 155 -229 187 -230 l32 0 0 300 0 300 -35 0 -35 0 -2 -234
-3 -235 -156 232 c-152 226 -157 232 -193 235 l-36 3 0 -300z"/>
<path d="M7445 1638 c-18 -56 -23 -63 -52 -70 -23 -6 -33 -14 -33 -28 0 -16 7
-20 35 -20 l35 0 0 -137 c0 -190 23 -232 128 -233 40 0 42 1 42 29 0 27 -3 30
-37 33 -54 4 -63 28 -63 180 l0 127 48 3 c43 3 47 5 50 31 3 26 2 27 -47 27
l-51 0 0 60 c0 51 -3 60 -18 60 -13 0 -23 -16 -37 -62z"/>
<path d="M4325 1577 c-44 -11 -50 -15 -53 -41 -3 -26 -1 -28 20 -22 13 4 57
10 98 13 66 5 77 3 93 -15 10 -11 20 -35 24 -54 l5 -35 -89 -5 c-55 -3 -101
-12 -121 -22 -65 -33 -91 -120 -56 -187 17 -33 82 -69 124 -69 31 0 100 31
119 53 20 24 29 21 36 -14 5 -24 11 -29 28 -27 22 3 22 6 22 173 0 185 -5 205
-60 241 -32 21 -127 26 -190 11z m183 -250 c8 -95 -120 -166 -183 -102 -33 32
-34 84 -2 112 31 29 44 32 117 30 l65 -2 3 -38z"/>
<path d="M4796 1575 c-96 -34 -141 -138 -117 -270 24 -128 132 -190 265 -151
51 15 56 19 56 45 l0 29 -42 -15 c-51 -18 -127 -13 -162 11 -33 21 -61 112
-52 173 13 98 65 139 161 130 27 -2 58 -8 68 -12 16 -7 18 -4 15 20 -2 22 -11
31 -38 41 -46 17 -106 16 -154 -1z"/>
<path d="M5385 1579 c-44 -17 -91 -65 -104 -108 -20 -67 -14 -181 12 -231 39
-79 143 -114 257 -87 51 11 55 15 58 43 l3 31 -60 -15 c-86 -21 -142 -10 -180
34 -20 22 -31 46 -31 64 l0 30 145 0 145 0 0 62 c0 75 -26 136 -71 162 -37 22
-132 30 -174 15z m130 -59 c27 -10 55 -62 55 -100 0 -19 -6 -20 -115 -20
l-115 0 0 31 c0 48 56 99 108 99 23 0 52 -4 67 -10z"/>
<path d="M6627 1576 c-55 -20 -82 -49 -101 -108 -33 -102 -12 -223 48 -276 58
-51 155 -63 254 -31 26 9 32 16 32 38 l0 28 -52 -13 c-124 -33 -202 0 -223 94
l-7 32 153 0 152 0 -6 71 c-7 81 -28 125 -74 152 -43 25 -128 31 -176 13z
m154 -75 c21 -22 29 -39 29 -65 l0 -36 -116 0 -116 0 6 32 c14 69 48 96 124
97 35 1 49 -5 73 -28z"/>
<path d="M3970 1365 l0 -215 35 0 35 0 0 138 c0 118 3 141 20 169 20 34 66 63
100 63 16 0 20 6 20 31 0 31 -1 32 -41 26 -28 -4 -52 -16 -74 -37 -27 -26 -33
-29 -39 -15 -3 9 -6 25 -6 36 0 14 -7 19 -25 19 l-25 0 0 -215z"/>
<path d="M6962 1546 c13 -19 45 -66 71 -105 l49 -70 -69 -98 c-38 -54 -72
-104 -77 -110 -5 -10 2 -13 27 -13 32 0 39 6 92 85 32 47 62 85 66 85 4 0 34
-37 67 -82 53 -76 61 -83 95 -86 20 -2 37 -1 37 2 0 3 -34 53 -75 112 -41 58
-72 112 -68 118 4 6 35 50 70 97 35 48 63 90 63 93 0 3 -15 6 -32 6 -30 0 -38
-8 -88 -80 -30 -44 -58 -80 -61 -80 -4 0 -30 36 -59 80 -51 77 -54 80 -91 80
l-39 0 22 -34z"/>
<path d="M4120 696 l0 -113 -47 23 c-80 41 -163 27 -216 -35 -37 -44 -50 -96
-45 -182 6 -118 47 -179 134 -199 48 -12 132 10 159 40 24 27 31 25 39 -10 4
-21 11 -30 26 -30 20 0 20 5 20 310 l0 310 -35 0 -35 0 0 -114z m-25 -156 c23
-22 25 -30 25 -125 0 -113 -10 -138 -66 -161 -68 -29 -126 -8 -159 56 -20 39
-20 152 1 196 25 53 50 66 116 62 43 -3 64 -10 83 -28z"/>
<path d="M3360 490 l0 -300 185 0 185 0 0 30 0 29 -147 3 -148 3 0 105 0 105
133 3 132 3 0 29 0 30 -135 0 -135 0 0 100 0 100 145 0 145 0 0 30 0 30 -180
0 -180 0 0 -300z"/>
<path d="M5920 760 c0 -29 2 -30 45 -30 43 0 45 1 45 30 0 29 -2 30 -45 30
-43 0 -45 -1 -45 -30z"/>
<path d="M5687 733 c-2 -5 -10 -32 -17 -60 -11 -50 -14 -53 -52 -63 -52 -15
-50 -44 5 -48 l37 -3 0 -145 c0 -164 9 -195 61 -213 18 -6 49 -11 70 -11 37 0
39 2 39 30 0 27 -3 30 -33 30 -60 0 -67 19 -67 173 l0 137 45 0 c43 0 45 1 45
30 0 29 -2 30 -45 30 l-45 0 0 60 c0 53 -2 60 -19 60 -11 0 -22 -3 -24 -7z"/>
<path d="M4908 619 c-156 -44 -170 -352 -19 -416 45 -19 133 -21 184 -4 31 10
37 17 37 41 l0 28 -47 -15 c-56 -17 -122 -12 -157 10 -34 22 -60 106 -53 168
12 103 60 145 156 136 31 -2 64 -8 74 -12 27 -11 23 41 -4 56 -30 16 -127 20
-171 8z"/>
<path d="M5265 617 c-44 -11 -50 -15 -53 -41 -3 -26 -1 -28 20 -22 13 4 57 10
98 13 90 6 109 -4 117 -65 l6 -42 -70 0 c-83 0 -156 -23 -183 -57 -31 -39 -28
-132 5 -171 48 -58 159 -61 218 -6 34 31 45 30 49 -4 2 -19 9 -27 23 -27 19 0
20 8 23 165 3 185 -7 222 -63 249 -40 19 -128 23 -190 8z m185 -252 c0 -111
-152 -173 -197 -81 -36 76 16 126 130 126 l67 0 0 -45z"/>
<path d="M6234 617 c-80 -32 -123 -102 -124 -202 0 -127 50 -203 148 -224 102
-21 190 17 233 102 17 33 20 54 17 127 -3 74 -7 92 -30 128 -16 23 -42 49 -60
58 -41 21 -144 27 -184 11z m138 -58 c54 -25 82 -117 64 -213 -16 -83 -99
-126 -178 -93 -48 20 -69 54 -75 124 -11 119 36 193 122 193 24 0 54 -5 67
-11z"/>
<path d="M6755 611 c-22 -10 -46 -25 -54 -34 -19 -24 -28 -21 -34 13 -5 21
-12 30 -27 30 -19 0 -20 -6 -20 -216 l0 -215 33 3 32 3 3 151 3 151 35 34 c31
30 41 34 90 34 47 0 58 -4 74 -25 26 -34 30 -64 30 -216 l0 -134 30 0 30 0 0
168 c0 143 -3 172 -18 202 -35 66 -126 88 -207 51z"/>
<path d="M4320 460 c0 -206 13 -241 101 -269 49 -16 121 2 165 42 35 30 39 28
46 -18 2 -12 12 -21 26 -23 l22 -3 0 215 0 216 -35 0 -35 0 0 -142 c0 -122 -3
-147 -19 -174 -40 -66 -138 -81 -181 -27 -18 23 -20 40 -20 184 l0 159 -35 0
-35 0 0 -160z"/>
<path d="M5900 605 c0 -8 9 -20 20 -27 19 -12 20 -24 20 -200 l0 -188 35 0 35
0 0 215 0 215 -55 0 c-42 0 -55 -4 -55 -15z"/>
</g>
</svg>
