<?xml version="1.0" standalone="no"?>
<!DOCTYPE svg PUBLIC "-//W3C//DTD SVG 20010904//EN"
 "http://www.w3.org/TR/2001/REC-SVG-20010904/DTD/svg10.dtd">
<svg version="1.0" xmlns="http://www.w3.org/2000/svg"
 width="240.000000pt" height="240.000000pt" viewBox="0 0 240.000000 240.000000"
 preserveAspectRatio="xMidYMid meet">

<g transform="translate(0.000000,240.000000) scale(0.100000,-0.100000)"
fill="#000000" stroke="none">
<path d="M1080 1979 c-136 -15 -255 -70 -324 -151 -39 -45 -66 -130 -66 -206
l0 -52 124 0 124 0 6 44 c15 95 81 147 206 161 134 14 254 -29 292 -105 22
-43 24 -147 4 -194 -23 -56 -74 -84 -306 -167 -121 -43 -237 -87 -257 -98 -50
-26 -118 -93 -151 -150 -26 -44 -27 -51 -27 -196 0 -180 14 -239 75 -308 87
-99 204 -137 418 -137 209 0 326 36 421 130 41 39 53 60 70 116 20 67 20 84
13 569 -7 484 -8 501 -29 541 -40 74 -131 149 -219 178 -55 18 -194 37 -259
35 -22 -1 -74 -5 -115 -10z m389 -971 c2 -264 -16 -318 -124 -364 -61 -26
-235 -24 -296 3 -71 31 -104 94 -104 193 0 67 3 79 30 117 43 60 129 107 292
159 78 24 152 53 165 64 13 11 26 19 29 20 3 0 7 -87 8 -192z"/>
</g>
</svg>
